<svg width="65" height="65" viewBox="0 0 65 65" fill="none" xmlns="http://www.w3.org/2000/svg">
<path d="M32.5 0.5C14.827 0.5 0.5 14.827 0.5 32.5C0.5 50.174 14.827 64.5 32.5 64.5C50.174 64.5 64.5 50.174 64.5 32.5C64.5 14.827 50.174 0.5 32.5 0.5ZM32.5 60.563C17.061 60.563 4.5 47.939 4.5 32.4999C4.5 17.0609 17.061 4.49988 32.5 4.49988C47.939 4.49988 60.5 17.0609 60.5 32.4999C60.5 47.9388 47.939 60.563 32.5 60.563ZM45.271 20.791L26.4959 39.684L18.0409 31.229C17.2599 30.448 15.9939 30.448 15.2119 31.229C14.4309 32.01 14.4309 33.276 15.2119 34.057L25.1109 43.957C25.8919 44.737 27.1579 44.737 27.9399 43.957C28.0299 43.867 28.107 43.7689 28.177 43.667L48.101 23.6199C48.881 22.8389 48.881 21.5729 48.101 20.791C47.319 20.01 46.053 20.01 45.271 20.791Z" fill="#85BC19"/>
</svg>
