<svg width="25" height="24" viewBox="0 0 25 24" fill="none" xmlns="http://www.w3.org/2000/svg">
<path d="M15.8984 2H9.89844C9.34615 2 8.89844 2.44772 8.89844 3V5C8.89844 5.55228 9.34615 6 9.89844 6H15.8984C16.4507 6 16.8984 5.55228 16.8984 5V3C16.8984 2.44772 16.4507 2 15.8984 2Z" stroke="#231F20" stroke-width="1.5" stroke-linecap="round" stroke-linejoin="round"/>
<path d="M16.8984 4H18.8984C19.4289 4 19.9376 4.21071 20.3127 4.58579C20.6877 4.96086 20.8984 5.46957 20.8984 6V20C20.8984 20.5304 20.6877 21.0391 20.3127 21.4142C19.9376 21.7893 19.4289 22 18.8984 22H6.89844C6.368 22 5.8593 21.7893 5.48422 21.4142C5.10915 21.0391 4.89844 20.5304 4.89844 20V6C4.89844 5.46957 5.10915 4.96086 5.48422 4.58579C5.8593 4.21071 6.368 4 6.89844 4H8.89844M12.8984 11H16.8984M12.8984 16H16.8984M8.89844 11H8.90844M8.89844 16H8.90844" stroke="#231F20" stroke-width="1.5" stroke-linecap="round" stroke-linejoin="round"/>
</svg>
