<svg width="25" height="25" viewBox="0 0 25 25" fill="none" xmlns="http://www.w3.org/2000/svg">
<path d="M11.7411 3.28906H8.00208C4.92708 3.28906 2.99908 5.46606 2.99908 8.54806V16.8621C2.99908 19.9441 4.91808 22.1211 8.00208 22.1211H16.8261C19.9111 22.1211 21.8301 19.9441 21.8301 16.8621V12.8341" stroke="#231F20" stroke-width="1.5" stroke-linecap="round" stroke-linejoin="round"/>
<path fill-rule="evenodd" clip-rule="evenodd" d="M9.0766 11.421L16.5496 3.94799C17.4806 3.01799 18.9896 3.01799 19.9206 3.94799L21.1376 5.16499C22.0686 6.09599 22.0686 7.60599 21.1376 8.53599L13.6286 16.045C13.2216 16.452 12.6696 16.681 12.0936 16.681H8.3476L8.4416 12.901C8.4556 12.345 8.6826 11.815 9.0766 11.421Z" stroke="#231F20" stroke-width="1.5" stroke-linecap="round" stroke-linejoin="round"/>
<path d="M15.414 5.10254L19.98 9.66854" stroke="#231F20" stroke-width="1.5" stroke-linecap="round" stroke-linejoin="round"/>
</svg>
