<svg width="19" height="18" viewBox="0 0 19 18" fill="none" xmlns="http://www.w3.org/2000/svg">
<path d="M2.99854 9C2.99854 10.335 3.39442 11.6401 4.13612 12.7501C4.87781 13.8601 5.93202 14.7253 7.16542 15.2362C8.39882 15.7471 9.75602 15.8808 11.0654 15.6203C12.3748 15.3599 13.5775 14.717 14.5215 13.773C15.4655 12.829 16.1084 11.6262 16.3688 10.3169C16.6293 9.00749 16.4956 7.65029 15.9847 6.41689C15.4738 5.18349 14.6087 4.12928 13.4986 3.38758C12.3886 2.64588 11.0836 2.25 9.74854 2.25C7.8615 2.2571 6.05026 2.99342 4.69354 4.305L2.99854 6" stroke="#DC3545" stroke-width="1.5" stroke-linecap="round" stroke-linejoin="round"/>
<path d="M2.99854 2.25V6H6.74854" stroke="#DC3545" stroke-width="1.5" stroke-linecap="round" stroke-linejoin="round"/>
</svg>
